<svg xmlns="http://www.w3.org/2000/svg" viewBox="0 0 24 24" fill="#E4405F">
  <path d="M12 2.163c3.204 0 3.584.012 4.85.07 1.366.062 2.633.35 3.608 1.326.976.976 1.264 2.243 1.326 3.608.058 1.266.07 1.646.07 4.85s-.012 3.584-.07 4.85c-.062 1.366-.35 2.633-1.326 3.608-.976.976-2.243 1.264-3.608 1.326-1.266.058-1.646.07-4.85.07s-3.584-.012-4.85-.07c-1.366-.062-2.633-.35-3.608-1.326-.976-.976-1.264-2.243-1.326-3.608-.058-1.266-.07-1.646-.07-4.85s.012-3.584.07-4.85c.062-1.366.35-2.633 1.326-3.608.976-.976 2.243-1.264 3.608-1.326C8.416 2.175 8.796 2.163 12 2.163zm0-2.163C8.741 0 8.332.012 7.052.07 5.765.127 4.658.42 3.737 1.341 2.817 2.262 2.524 3.369 2.467 4.656.012 8.332 0 8.741 0 12s.012 3.668.07 4.948c.057 1.287.35 2.394 1.271 3.315.921.921 2.028 1.214 3.315 1.271 1.28.058 1.689.07 4.948.07s3.668-.012 4.948-.07c1.287-.057 2.394-.35 3.315-1.271.921-.921 1.214-2.028 1.271-3.315.058-1.28.07-1.689.07-4.948s-.012-3.668-.07-4.948c-.057-1.287-.35-2.394-1.271-3.315-.921-.921-2.028-1.214-3.315-1.271C15.668.012 15.259 0 12 0z"/>
  <circle cx="12" cy="12" r="3.6"/>
  <circle cx="18.406" cy="5.594" r="1.44"/>
</svg>
