<svg xmlns="http://www.w3.org/2000/svg" viewBox="0 0 24 24" fill="#1DA1F2">
  <path d="M23 3a10.9 10.9 0 0 1-3.14 1.53A4.48 4.48 0 0 0 22.4.36a9.09 9.09 0 0 1-2.88 1.1A4.52 4.52 0 0 0 16.11 0c-2.63 0-4.75 2.19-4.75 4.88 0 .38.04.75.12 1.1-3.95-.21-7.46-2.18-9.8-5.18a5.02 5.02 0 0 0-.64 2.46c0 1.7.84 3.2 2.12 4.08a4.27 4.27 0 0 1-2.15-.62v.06c0 2.38 1.64 4.36 3.82 4.81a4.34 4.34 0 0 1-2.14.08c.6 2 2.34 3.46 4.4 3.5A9.05 9.05 0 0 1 1 19.54 12.77 12.77 0 0 0 7.29 21c8.7 0 13.46-7.45 13.46-13.9 0-.21 0-.42-.01-.63A9.88 9.88 0 0 0 23 3z"/>
</svg>
